HIERARCHY
ROOT Pelvis
{
	OFFSET 0.000000 0.000000 0.000000
	CHANNELS 6 Xposition Yposition Zposition Xrotation Yrotation Zrotation
	JOINT LeftUpLeg_virtual
	{
		OFFSET 0.000000 0.000000 0.000000
		CHANNELS 3 Xrotation Yrotation Zrotation
		JOINT LeftUpLeg
		{
			OFFSET 18.735201 -5.666702 -4.541200
			CHANNELS 3 Xrotation Yrotation Zrotation
			JOINT LeftLeg
			{
				OFFSET -0.021200 -31.938179 0.493100
				CHANNELS 3 Xrotation Yrotation Zrotation
				JOINT LeftFoot
				{
					OFFSET 0.021200 -31.938179 -4.336299
					CHANNELS 3 Xrotation Yrotation Zrotation
					JOINT LeftToeBase
					{
						OFFSET 0.943001 -26.722000 15.023500
						CHANNELS 3 Xrotation Yrotation Zrotation
						End Site
						{
							OFFSET 0 0 0
						}
					}
				}
			}
		}
	}
	JOINT RightUpLeg_virtual
	{
		OFFSET 0.000000 0.000000 0.000000
		CHANNELS 3 Xrotation Yrotation Zrotation
		JOINT RightUpLeg
		{
			OFFSET -18.735201 -5.666702 -4.541200
			CHANNELS 3 Xrotation Yrotation Zrotation
			JOINT RightLeg
			{
				OFFSET 0.018946 -31.938133 0.493100
				CHANNELS 3 Xrotation Yrotation Zrotation
				JOINT RightFoot
				{
					OFFSET -0.018946 -31.938126 -4.336299
					CHANNELS 3 Xrotation Yrotation Zrotation
					JOINT RightToeBase
					{
						OFFSET -0.943001 -26.722004 15.023500
						CHANNELS 3 Xrotation Yrotation Zrotation
						End Site
						{
							OFFSET 0 0 0
						}
					}
				}
			}
		}
	}
	JOINT Hips_virtual
	{
		OFFSET 0.000000 0.000000 0.000000
		CHANNELS 3 Xrotation Yrotation Zrotation
		JOINT Hips
		{
			OFFSET -0.000000 -0.000000 -0.000000
			CHANNELS 3 Xrotation Yrotation Zrotation
			JOINT Spine
			{
				OFFSET 0.000000 10.199997 -0.299500
				CHANNELS 3 Xrotation Yrotation Zrotation
				JOINT Spine1
				{
					OFFSET 0.000000 11.900002 -1.516600
					CHANNELS 3 Xrotation Yrotation Zrotation
					JOINT Spine2
					{
						OFFSET 0.000000 13.600006 -2.842500
						CHANNELS 3 Xrotation Yrotation Zrotation
						JOINT Neck_virtual
						{
							OFFSET 0.000000 0.000000 0.000000
							CHANNELS 3 Xrotation Yrotation Zrotation
							JOINT Neck
							{
								OFFSET 0.000000 9.624100 -2.890100
								CHANNELS 3 Xrotation Yrotation Zrotation
								JOINT Head
								{
									OFFSET 0.000000 14.068802 -1.351900
									CHANNELS 3 Xrotation Yrotation Zrotation
									End Site
									{
										OFFSET 0 0 0
									}
								}
							}
						}
						JOINT LeftShoulder_virtual
						{
							OFFSET 0.000000 0.000000 0.000000
							CHANNELS 3 Xrotation Yrotation Zrotation
							JOINT LeftShoulder
							{
								OFFSET 15.263000 10.923401 -0.547700
								CHANNELS 3 Xrotation Yrotation Zrotation
								JOINT LeftArm
								{
									OFFSET 25.438599 -2.830597 -13.032500
									CHANNELS 3 Xrotation Yrotation Zrotation
									JOINT LeftForeArm
									{
										OFFSET 29.960503 0.000000 0.000000
										CHANNELS 3 Xrotation Yrotation Zrotation
										JOINT LeftHand
										{
											OFFSET 27.849251 0.000000 0.000000
											CHANNELS 3 Xrotation Yrotation Zrotation
											End Site
											{
												OFFSET 0 0 0
											}
										}
									}
								}
							}
						}
						JOINT RightShoulder_virtual
						{
							OFFSET 0.000000 0.000000 0.000000
							CHANNELS 3 Xrotation Yrotation Zrotation
							JOINT RightShoulder
							{
								OFFSET -15.263000 10.923401 -0.547700
								CHANNELS 3 Xrotation Yrotation Zrotation
								JOINT RightArm
								{
									OFFSET -25.438599 -2.830597 -13.032500
									CHANNELS 3 Xrotation Yrotation Zrotation
									JOINT RightForeArm
									{
										OFFSET -29.960503 0.000000 0.000000
										CHANNELS 3 Xrotation Yrotation Zrotation
										JOINT RightHand
										{
											OFFSET -27.849251 0.000000 0.000000
											CHANNELS 3 Xrotation Yrotation Zrotation
											End Site
											{
												OFFSET 0 0 0
											}
										}
									}
								}
							}
						}
					}
				}
			}
		}
	}
}
MOTION
Frames: 11
Frame Time: 0.03333333
4.813653 88.297485 -3.466736 0.000000 0.000000 0.000000 146.667289 -47.844143 172.170409 -28.378613 -2.485794 23.236862 19.071864 -8.974137 -9.947236 -0.080930 -0.101846 -16.244758 0.000000 0.000000 0.000000 150.985525 -46.282069 175.057202 -10.601267 -10.726965 -12.962222 38.998492 1.802254 -0.834609 -34.299987 -3.545196 22.358518 0.000000 0.000000 0.000000 147.962374 -48.374436 167.862089 1.797569 -2.113961 -0.287878 0.918996 -1.699023 3.753568 12.597504 0.657850 -2.885425 0.000000 0.000000 0.000000 11.641824 1.074099 -2.080734 -0.130197 0.464116 -0.587844 0.000000 0.000000 0.000000 9.569323 0.407555 -3.171387 7.138094 -13.064646 -18.278044 -4.263046 -2.621242 -26.578225 4.624795 -61.562182 1.502461 0.000000 0.000000 0.000000 10.675965 1.463534 -2.725930 -2.384164 -5.543609 -6.600284 -11.253566 -10.646373 63.667820 -3.777219 50.742295 5.960305 0.000000 0.000000 0.000000 
4.538793 87.870079 -3.107037 0.000000 0.000000 0.000000 153.804768 -23.433785 -178.309137 -30.797791 -1.426944 24.235716 23.579886 -7.677515 -9.531612 2.811411 2.499222 -12.760857 0.000000 0.000000 0.000000 157.000873 -23.845182 -177.385887 -15.011149 -8.904300 -12.770731 41.882679 1.994403 -1.258980 -36.998008 -3.308809 19.628248 0.000000 0.000000 0.000000 156.668557 -24.559571 -179.321863 0.796285 -1.333033 -0.432367 1.368713 -1.543093 4.034306 12.387754 0.952191 -3.288949 0.000000 0.000000 0.000000 11.003602 1.239150 -2.825510 -0.447805 0.416317 -0.651992 0.000000 0.000000 0.000000 9.789751 0.858871 -3.371012 7.502562 -11.284448 -16.421585 -2.233991 -0.047749 -25.879317 5.328973 -59.432126 1.483344 0.000000 0.000000 0.000000 10.589108 1.751957 -3.101129 -2.455049 -3.150081 -6.440074 -13.556157 -4.339778 62.057740 -3.743617 47.864808 5.514117 0.000000 0.000000 0.000000 
4.139278 86.388542 -3.513477 0.000000 0.000000 0.000000 158.168630 7.278157 -172.894423 -33.171749 -1.297458 24.330440 30.296141 -7.189718 -8.545858 0.071306 5.233025 -11.023983 0.000000 0.000000 0.000000 160.634014 5.177998 -172.704243 -22.648947 -6.324640 -12.183424 47.590371 2.196803 -1.941808 -39.918286 -2.741707 15.769245 0.000000 0.000000 0.000000 160.460432 9.276024 -172.611653 -0.488579 -1.578489 -0.540171 2.024743 -1.370801 4.076992 11.978404 1.181725 -3.514344 0.000000 0.000000 0.000000 9.981821 1.599691 -3.511563 -0.900084 0.398512 -0.805692 0.000000 0.000000 0.000000 9.799700 1.432479 -3.412127 7.325674 -9.686755 -12.783585 3.385120 2.651365 -24.942382 4.847356 -55.570378 0.214071 0.000000 0.000000 0.000000 10.234174 1.993222 -3.335216 -2.287761 -0.240782 -5.356175 -15.551772 6.561088 56.227405 -3.845907 42.100565 4.890315 0.000000 0.000000 0.000000 
3.874611 84.355736 -4.160995 0.000000 0.000000 0.000000 159.718783 27.001602 -170.147894 -34.601673 -1.358089 23.771806 37.268664 -7.376794 -7.378101 -7.684560 7.314163 -11.682134 0.000000 0.000000 0.000000 161.534206 25.579257 -169.775253 -33.236244 -4.691995 -11.756116 55.435455 2.442988 -2.229701 -39.672867 -1.460056 12.966372 0.000000 0.000000 0.000000 160.962260 31.380409 -169.983068 -0.482200 -2.136831 -0.717910 2.775411 -1.237375 3.898807 11.606143 1.221445 -3.478260 0.000000 0.000000 0.000000 8.992710 1.879503 -3.828347 -1.298898 0.419832 -1.016362 0.000000 0.000000 0.000000 9.564713 1.854996 -3.264952 6.532580 -8.745384 -8.209145 9.934657 4.873126 -23.984795 3.730019 -51.759682 -1.526741 0.000000 0.000000 0.000000 9.801094 1.974186 -3.411655 -2.008415 2.535166 -3.846955 -14.057491 18.139094 47.470126 -3.948395 36.526653 4.248076 0.000000 0.000000 0.000000 
3.799592 82.388008 -4.763107 0.000000 0.000000 0.000000 159.929494 37.580302 -168.166538 -36.522080 -0.252772 23.847083 44.258489 -7.238419 -6.744303 -16.040308 9.298129 -13.805693 0.000000 0.000000 0.000000 160.059377 37.814963 -166.710164 -46.546254 -4.957922 -12.311371 63.665641 2.716283 -1.509275 -35.589264 0.418191 11.376631 0.000000 0.000000 0.000000 159.741882 42.535037 -167.830056 0.274533 -2.598068 -0.833100 3.386657 -1.177975 3.661450 11.434854 0.970452 -3.171345 0.000000 0.000000 0.000000 8.430828 1.851795 -3.656279 -1.574617 0.440291 -1.256576 0.000000 0.000000 0.000000 9.313126 1.932549 -2.948286 5.276465 -8.573102 -3.627146 16.310895 6.754988 -23.117223 2.266969 -49.810087 -3.117431 0.000000 0.000000 0.000000 9.556405 1.618539 -3.287703 -1.585528 5.280732 -3.030441 -8.258815 25.754721 36.976059 -4.174017 33.134078 3.740120 0.000000 0.000000 0.000000 
4.023786 80.603882 -4.785225 0.000000 0.000000 0.000000 158.292025 43.521392 -165.299430 -41.256122 1.809769 24.943298 52.336854 -5.946083 -6.982244 -21.968643 11.890401 -14.959998 0.000000 0.000000 0.000000 156.955452 44.503279 -163.102800 -60.660768 -6.227241 -14.192705 71.125205 2.917497 -0.156241 -29.320486 2.593748 9.306035 0.000000 0.000000 0.000000 157.286662 47.734327 -164.716063 1.306889 -3.370214 -0.517908 3.885783 -1.292238 3.431317 11.490686 0.395828 -2.657257 0.000000 0.000000 0.000000 8.635275 1.448685 -3.049117 -1.743705 0.448585 -1.490577 0.000000 0.000000 0.000000 9.273017 1.557769 -2.505839 3.797072 -9.117574 0.069329 22.662390 9.097446 -22.564787 0.288607 -51.910544 -4.598235 0.000000 0.000000 0.000000 9.674850 0.949949 -3.017737 -0.981528 7.552884 -3.610545 -1.944064 25.799373 28.847523 -4.320881 31.839794 3.145636 0.000000 0.000000 0.000000 
4.116429 78.854240 -3.996849 0.000000 0.000000 0.000000 154.510613 47.204749 -160.751289 -48.157406 2.174571 26.016792 61.329853 -4.226265 -7.194304 -25.586404 14.594357 -14.038487 0.000000 0.000000 0.000000 153.233436 47.457995 -159.026912 -72.992169 -6.167313 -15.596506 76.747673 3.449901 0.527244 -22.164092 4.628342 7.201494 0.000000 0.000000 0.000000 153.992188 49.348086 -160.848523 1.756476 -3.536320 0.057876 4.308289 -1.434642 3.202051 11.954864 -0.319711 -2.102056 0.000000 0.000000 0.000000 9.602679 0.790430 -2.222521 -1.888434 0.465374 -1.655289 0.000000 0.000000 0.000000 9.625074 0.914949 -2.009238 2.297565 -9.800470 2.562102 30.449584 13.249376 -23.203778 -2.116101 -59.086266 -6.262700 0.000000 0.000000 0.000000 10.301282 0.165401 -2.745069 -0.253581 9.291853 -5.170697 0.345024 17.916402 26.238419 -4.235581 31.439723 2.315191 0.000000 0.000000 0.000000 
4.035442 77.179161 -2.752914 0.000000 0.000000 0.000000 149.636631 48.601017 -155.256265 -54.645639 -0.161428 26.019710 68.670121 -3.151289 -6.459972 -27.576873 16.322810 -13.129819 0.000000 0.000000 0.000000 149.363915 47.699473 -154.478361 -81.622618 -3.811062 -15.016412 80.381361 4.467091 0.085328 -16.144928 6.358060 6.668976 0.000000 0.000000 0.000000 150.364443 48.682149 -156.648872 1.463705 -3.632602 0.374083 4.818633 -1.465902 2.811896 12.778267 -0.969387 -1.677248 0.000000 0.000000 0.000000 11.066354 0.158032 -1.499247 -2.144511 0.500941 -1.691806 0.000000 0.000000 0.000000 10.382612 0.336558 -1.582516 0.924116 -10.017113 3.618556 39.934504 20.334084 -26.890707 -5.139906 -68.901623 -8.337265 0.000000 0.000000 0.000000 11.410064 -0.488232 -2.500391 0.475727 10.603786 -6.854398 -2.221791 2.721482 28.804858 -3.942375 30.188142 1.349049 0.000000 0.000000 0.000000 
4.143181 75.517464 -1.616501 0.000000 0.000000 0.000000 145.305472 47.567046 -150.446528 -59.594760 -3.895738 25.101034 72.720874 -2.755823 -4.897789 -27.720497 16.643469 -13.505982 0.000000 0.000000 0.000000 146.264649 45.929535 -150.869344 -87.179804 0.382163 -13.308630 83.010895 5.499637 -0.703261 -13.962797 7.438055 7.991183 0.000000 0.000000 0.000000 147.041077 46.373535 -152.762317 1.021374 -3.423557 0.525076 5.753462 -1.271710 1.897543 13.854884 -1.381190 -1.534150 0.000000 0.000000 0.000000 12.761242 -0.314804 -1.125239 -2.494264 0.523230 -1.513382 0.000000 0.000000 0.000000 11.632213 -0.067555 -1.369075 -0.073573 -9.816305 3.015938 49.764646 29.529630 -34.252470 -8.497521 -76.639579 -10.257530 0.000000 0.000000 0.000000 12.814799 -0.917611 -2.327675 1.088445 10.926091 -7.740141 -7.462391 -16.185501 32.895755 -3.461137 27.184501 0.440665 0.000000 0.000000 0.000000 
4.347798 73.467674 -1.272167 0.000000 0.000000 0.000000 143.167609 44.843989 -148.350657 -64.012909 -8.128253 24.105138 75.461139 -2.355876 -3.148155 -25.117068 16.181026 -13.941864 0.000000 0.000000 0.000000 144.548181 42.931827 -148.958052 -91.008644 5.604658 -12.085577 85.769622 6.250444 -0.692125 -15.752025 7.555788 10.793368 0.000000 0.000000 0.000000 145.153664 42.077746 -150.530498 0.796485 -2.327787 0.355449 7.257334 -0.854178 0.322218 15.182457 -1.584989 -1.636329 0.000000 0.000000 0.000000 14.424390 -0.626484 -1.131648 -2.920626 0.450656 -1.094878 0.000000 0.000000 0.000000 13.451493 -0.232561 -1.407458 -0.573905 -9.670012 0.447483 58.986975 38.972639 -44.571390 -6.987625 -77.915301 -6.582445 0.000000 0.000000 0.000000 14.523757 -1.101196 -2.261528 1.563620 10.650112 -6.827654 -12.850834 -31.953254 35.838006 -2.971311 23.220538 0.011243 0.000000 0.000000 0.000000 
4.749077 70.850197 -1.480690 0.000000 0.000000 0.000000 143.860477 41.086129 -149.580924 -69.763375 -11.900730 23.366706 80.460503 -1.706986 -1.889399 -19.923778 15.630137 -13.721339 0.000000 0.000000 0.000000 144.299590 38.764435 -148.880871 -94.097686 11.014215 -12.453895 88.969184 6.972569 0.684655 -19.060546 7.442931 14.295033 0.000000 0.000000 0.000000 145.277919 36.748890 -150.518245 0.745026 -1.341044 0.369260 9.303944 -0.535257 -1.602829 16.582895 -1.679744 -1.856312 0.000000 0.000000 0.000000 15.834197 -0.797185 -1.436393 -3.333682 0.310784 -0.477482 0.000000 0.000000 0.000000 15.667581 -0.324994 -1.621592 -0.422042 -10.125783 -4.282164 64.664352 47.461420 -54.338485 -2.322336 -72.404588 1.015200 0.000000 0.000000 0.000000 16.192512 -1.115274 -2.236685 1.845141 9.895194 -4.319972 -16.023721 -39.137336 39.147140 -2.341216 20.018943 0.127439 0.000000 0.000000 0.000000 
